<svg id="Layer_1" data-name="Layer 1" xmlns="http://www.w3.org/2000/svg" viewBox="0 0 900 300"><defs><style>.cls-1{fill:#fff;}.cls-2{fill:#e3e3e3;}</style></defs><title>LOGO HORIZONTALwhite</title><path class="cls-1" d="M404,133.12c-.08-9.28,5.56-21.52,15.5-33A98.51,98.51,0,0,0,417.65,89C411.72,62.4,396.2,43.24,383,46.19S363.87,73.07,369.8,99.66c3.19,14.29,9.15,26.42,16,34.14C393,131.2,399.49,130.85,404,133.12Z"/><path class="cls-1" d="M413.31,136.06c5,.69,10.07,4.67,14.49,10.92,10.06-2.41,21.88-9,32.66-18.87,20.06-18.43,28.9-41.45,19.74-51.42S447.35,73.59,427.3,92a97.14,97.14,0,0,0-7.84,8.07C421,115.22,418.68,128.48,413.31,136.06Z"/><path class="cls-2" d="M404,133.12a10.67,10.67,0,0,1,3,2.26,11.24,11.24,0,0,1,1,1.3,10.11,10.11,0,0,1,1.56-.49,10.38,10.38,0,0,1,3.77-.13c5.37-7.58,7.73-20.84,6.15-36C409.52,111.6,403.88,123.84,404,133.12Z"/><path class="cls-1" d="M401.41,142.74c-5.22-.13-10.64-3.39-15.58-8.94A69.28,69.28,0,0,0,363.32,148c-16.55,15.21-23.84,34.21-16.29,42.43s27.11,2.57,43.66-12.64a80.78,80.78,0,0,0,6.47-6.67C395.94,159.48,397.57,149.15,401.41,142.74Z"/><path class="cls-2" d="M401.41,142.74a16.28,16.28,0,0,1,3.39-4.12,17.91,17.91,0,0,1-.84-5.5c-4.47-2.27-10.94-1.92-18.13.68C390.77,139.35,396.19,142.61,401.41,142.74Z"/><path class="cls-1" d="M427.8,147c-7.23,1.73-13.54,1.3-17.89-1.57-.51,7.45-5.08,16.86-12.75,25.74a79.14,79.14,0,0,0,1.5,9.17c4.89,21.94,17.7,37.75,28.6,35.32s15.78-22.19,10.88-44.13C436,161.77,432.24,153.24,427.8,147Z"/><path class="cls-2" d="M413.31,136.06a18,18,0,0,1-3.83,4,16.37,16.37,0,0,1,.43,5.32c4.35,2.87,10.66,3.3,17.89,1.57C423.38,140.73,418.27,136.75,413.31,136.06Z"/><path class="cls-2" d="M409.91,145.41a12.72,12.72,0,0,1-2.35-2,13.12,13.12,0,0,1-1.21-1.57,11.23,11.23,0,0,1-1.89.6,12.52,12.52,0,0,1-3,.28c-3.84,6.41-5.47,16.74-4.25,28.41C404.83,162.27,409.4,152.86,409.91,145.41Z"/><path class="cls-1" d="M142.46,187.73a17.57,17.57,0,0,1-7.25-1.42,11.47,11.47,0,0,1-5-4.24,14.27,14.27,0,0,1-.54-13,10.52,10.52,0,0,1,3.55-3.88,17.06,17.06,0,0,1,5.1-2.21,39.15,39.15,0,0,1,6-1.06c2.48-.25,4.47-.5,6-.73a8.39,8.39,0,0,0,3.3-1,2.3,2.3,0,0,0,1-2V158a5.12,5.12,0,0,0-1.65-4.07,6.84,6.84,0,0,0-4.66-1.44,8.3,8.3,0,0,0-5.06,1.4,6.57,6.57,0,0,0-2.5,3.5l-10.9-.89a14.91,14.91,0,0,1,3.26-6.71,15.89,15.89,0,0,1,6.3-4.37,24,24,0,0,1,9-1.54,27.51,27.51,0,0,1,6.79.83,17.93,17.93,0,0,1,5.79,2.58,12.56,12.56,0,0,1,4,4.47,13.68,13.68,0,0,1,1.46,6.52v28.67H155.22V181h-.33a12,12,0,0,1-2.74,3.5,12.44,12.44,0,0,1-4.13,2.35A16.84,16.84,0,0,1,142.46,187.73Zm3.38-8.13a9.83,9.83,0,0,0,4.59-1,8,8,0,0,0,3.13-2.81,7.24,7.24,0,0,0,1.13-4v-4.52a5.78,5.78,0,0,1-1.5.65,21.84,21.84,0,0,1-2.15.53c-.79.16-1.59.3-2.38.42l-2.16.31a15,15,0,0,0-3.62,1,5.85,5.85,0,0,0-2.41,1.79,4.45,4.45,0,0,0-.86,2.78,4.23,4.23,0,0,0,1.76,3.67A7.48,7.48,0,0,0,145.84,179.6Z"/><path class="cls-1" d="M204.88,156.54l-10.79.66a5.73,5.73,0,0,0-1.19-2.5,6.49,6.49,0,0,0-2.4-1.8,8.42,8.42,0,0,0-3.53-.68,8.79,8.79,0,0,0-4.62,1.15,3.48,3.48,0,0,0-1.88,3.06,3.25,3.25,0,0,0,1.22,2.57,9.59,9.59,0,0,0,4.18,1.69l7.69,1.55q6.21,1.27,9.25,4.1a9.63,9.63,0,0,1,3,7.42,11.57,11.57,0,0,1-2.45,7.33,15.86,15.86,0,0,1-6.7,4.91,25.25,25.25,0,0,1-9.78,1.76q-8.44,0-13.44-3.53a13.62,13.62,0,0,1-5.85-9.62l11.59-.6a5.89,5.89,0,0,0,2.55,3.91,10.82,10.82,0,0,0,10.17.14,3.65,3.65,0,0,0,1.93-3.11,3.31,3.31,0,0,0-1.36-2.65,9.94,9.94,0,0,0-4.1-1.59l-7.36-1.47q-6.23-1.25-9.26-4.31a10.7,10.7,0,0,1-3-7.84A11.35,11.35,0,0,1,171,150a14.08,14.08,0,0,1,6.28-4.57,25.77,25.77,0,0,1,9.51-1.61q8.06,0,12.69,3.41A13.14,13.14,0,0,1,204.88,156.54Z"/><path class="cls-1" d="M207.71,202.88V144.42h11.62v7.14h.53a15.53,15.53,0,0,1,2.26-3.5,11.71,11.71,0,0,1,3.87-3,13.14,13.14,0,0,1,6-1.21,16.08,16.08,0,0,1,8.58,2.42,17,17,0,0,1,6.28,7.28,27.85,27.85,0,0,1,2.35,12.17,28.29,28.29,0,0,1-2.28,12,17,17,0,0,1-6.2,7.39,15.91,15.91,0,0,1-8.76,2.5,13.5,13.5,0,0,1-5.83-1.13,12,12,0,0,1-3.92-2.87,14.16,14.16,0,0,1-2.32-3.5h-.36v22.76Zm11.54-37.21a19,19,0,0,0,1.05,6.62,9.78,9.78,0,0,0,3,4.39,8.27,8.27,0,0,0,9.71,0,9.8,9.8,0,0,0,3-4.43,21.09,21.09,0,0,0,0-13,9.73,9.73,0,0,0-3-4.38,8.48,8.48,0,0,0-9.76,0,9.43,9.43,0,0,0-3,4.32A18.69,18.69,0,0,0,219.25,165.67Z"/><path class="cls-1" d="M257.34,138.94a6.44,6.44,0,0,1-4.52-1.75,5.53,5.53,0,0,1-1.88-4.21,5.6,5.6,0,0,1,1.88-4.22,6.69,6.69,0,0,1,9,0,5.69,5.69,0,0,1,0,8.43A6.32,6.32,0,0,1,257.34,138.94Zm-5.95,48V144.42h11.79v42.51Z"/><path class="cls-1" d="M267.25,186.93V144.42h11.43v7.41h.44a11.15,11.15,0,0,1,3.9-6,10.38,10.38,0,0,1,6.32-2,16.45,16.45,0,0,1,1.91.11,12.54,12.54,0,0,1,1.79.3v10.47a14.62,14.62,0,0,0-2.29-.45,20.57,20.57,0,0,0-2.69-.19,9.39,9.39,0,0,0-4.63,1.12,8.34,8.34,0,0,0-3.21,3.11,8.82,8.82,0,0,0-1.18,4.6v24.05Z"/><path class="cls-1" d="M312.12,187.76a22.57,22.57,0,0,1-11.28-2.67,18,18,0,0,1-7.26-7.58,27.57,27.57,0,0,1,0-23.16,18.79,18.79,0,0,1,7.18-7.72,20.89,20.89,0,0,1,10.89-2.77,22.4,22.4,0,0,1,7.85,1.35,17.57,17.57,0,0,1,6.36,4,18.28,18.28,0,0,1,4.25,6.74,26.85,26.85,0,0,1,1.53,9.48v3.24H295.73v-7.31h24.81a9,9,0,0,0-1.11-4.51,8,8,0,0,0-3.06-3.08,8.91,8.91,0,0,0-4.53-1.13,9.06,9.06,0,0,0-4.74,1.24,8.86,8.86,0,0,0-3.23,3.29,9.46,9.46,0,0,0-1.19,4.58v6.95a11.75,11.75,0,0,0,1.18,5.45,8.38,8.38,0,0,0,3.33,3.54,10,10,0,0,0,5.12,1.25,11.14,11.14,0,0,0,3.6-.55,7.64,7.64,0,0,0,2.8-1.66,7.38,7.38,0,0,0,1.77-2.72l10.91.72A15,15,0,0,1,328,181.6a17.08,17.08,0,0,1-6.59,4.54A24.77,24.77,0,0,1,312.12,187.76Z"/><path class="cls-1" d="M490.12,156.54l-10.8.66a5.63,5.63,0,0,0-1.19-2.5,6.54,6.54,0,0,0-2.39-1.8,8.48,8.48,0,0,0-3.53-.68,8.74,8.74,0,0,0-4.62,1.15,3.47,3.47,0,0,0-1.89,3.06,3.28,3.28,0,0,0,1.22,2.57,9.64,9.64,0,0,0,4.18,1.69l7.7,1.55q6.19,1.27,9.24,4.1a9.64,9.64,0,0,1,3,7.42,11.63,11.63,0,0,1-2.45,7.33,16,16,0,0,1-6.7,4.91,25.33,25.33,0,0,1-9.79,1.76c-5.63,0-10.1-1.17-13.44-3.53a13.62,13.62,0,0,1-5.85-9.62l11.6-.6a5.91,5.91,0,0,0,2.54,3.91,10.84,10.84,0,0,0,10.18.14A3.66,3.66,0,0,0,479.1,175a3.31,3.31,0,0,0-1.36-2.65,9.88,9.88,0,0,0-4.09-1.59l-7.36-1.47q-6.24-1.25-9.26-4.31a10.7,10.7,0,0,1-3-7.84,11.4,11.4,0,0,1,2.22-7.05,14.11,14.11,0,0,1,6.29-4.57,25.71,25.71,0,0,1,9.5-1.61q8.06,0,12.7,3.41A13.18,13.18,0,0,1,490.12,156.54Z"/><path class="cls-1" d="M492.94,202.88V144.42h11.63v7.14h.52a15.53,15.53,0,0,1,2.26-3.5,11.85,11.85,0,0,1,3.88-3,13.07,13.07,0,0,1,6-1.21,16.08,16.08,0,0,1,8.58,2.42,16.94,16.94,0,0,1,6.28,7.28,27.85,27.85,0,0,1,2.36,12.17,28.14,28.14,0,0,1-2.29,12,17,17,0,0,1-6.2,7.39,15.91,15.91,0,0,1-8.76,2.5,13.43,13.43,0,0,1-5.82-1.13,11.83,11.83,0,0,1-3.92-2.87,14.21,14.21,0,0,1-2.33-3.5h-.36v22.76Zm11.55-37.21a19,19,0,0,0,1.05,6.62,9.76,9.76,0,0,0,3,4.39,8.29,8.29,0,0,0,9.72,0,9.8,9.8,0,0,0,3-4.43,19,19,0,0,0,1-6.55,18.81,18.81,0,0,0-1-6.47,9.71,9.71,0,0,0-3-4.38,8.48,8.48,0,0,0-9.76,0,9.43,9.43,0,0,0-3,4.32A18.69,18.69,0,0,0,504.49,165.67Z"/><path class="cls-1" d="M556.14,187.76a22.57,22.57,0,0,1-11.28-2.67,18.12,18.12,0,0,1-7.26-7.58,27.57,27.57,0,0,1,0-23.16,18.85,18.85,0,0,1,7.18-7.72,20.89,20.89,0,0,1,10.89-2.77,22.4,22.4,0,0,1,7.85,1.35,17.61,17.61,0,0,1,6.37,4,18.54,18.54,0,0,1,4.25,6.74,27.09,27.09,0,0,1,1.52,9.48v3.24h-35.9v-7.31h24.8a9,9,0,0,0-1.11-4.51,8,8,0,0,0-3.06-3.08,8.89,8.89,0,0,0-4.52-1.13,9.09,9.09,0,0,0-4.75,1.24,8.86,8.86,0,0,0-3.23,3.29,9.46,9.46,0,0,0-1.19,4.58v6.95a11.87,11.87,0,0,0,1.18,5.45,8.4,8.4,0,0,0,3.34,3.54,10,10,0,0,0,5.12,1.25,11.14,11.14,0,0,0,3.6-.55,7.59,7.59,0,0,0,2.79-1.66A7.13,7.13,0,0,0,564.5,174l10.91.72A15,15,0,0,1,572,181.6a17.08,17.08,0,0,1-6.59,4.54A24.73,24.73,0,0,1,556.14,187.76Z"/><path class="cls-1" d="M597.09,187.76A21.54,21.54,0,0,1,585.87,185a18.44,18.44,0,0,1-7.2-7.74,27.16,27.16,0,0,1,0-22.87,18.75,18.75,0,0,1,7.21-7.73A21.43,21.43,0,0,1,597,143.86a22.27,22.27,0,0,1,9.74,2,16.29,16.29,0,0,1,6.61,5.68,16.62,16.62,0,0,1,2.69,8.58H605a8.68,8.68,0,0,0-2.48-5.14,7.18,7.18,0,0,0-5.24-1.95,8,8,0,0,0-4.78,1.48,9.68,9.68,0,0,0-3.17,4.31,18.46,18.46,0,0,0-1.13,6.83,18.86,18.86,0,0,0,1.12,6.92,9.54,9.54,0,0,0,3.17,4.35,7.89,7.89,0,0,0,4.79,1.49,7.77,7.77,0,0,0,3.64-.83,7.05,7.05,0,0,0,2.68-2.42,9.22,9.22,0,0,0,1.4-3.83h11.13a17.59,17.59,0,0,1-2.64,8.57,16.25,16.25,0,0,1-6.52,5.77A21.82,21.82,0,0,1,597.09,187.76Z"/><path class="cls-1" d="M640.68,144.42v8.85h-25.6v-8.85Zm-19.79-10.19h11.79v39.64a5.3,5.3,0,0,0,.5,2.53,2.72,2.72,0,0,0,1.4,1.26,5.58,5.58,0,0,0,2.09.36,9.4,9.4,0,0,0,1.66-.15l1.27-.24,1.86,8.78c-.6.18-1.43.4-2.5.65a20.34,20.34,0,0,1-3.9.45,17.8,17.8,0,0,1-7.46-1.13,10.48,10.48,0,0,1-5-4,12.37,12.37,0,0,1-1.74-6.92Z"/><path class="cls-1" d="M642.27,186.93V144.42H653.7v7.41h.44a11.15,11.15,0,0,1,3.9-6,10.38,10.38,0,0,1,6.32-2,16.45,16.45,0,0,1,1.91.11,13,13,0,0,1,1.8.3v10.47a15,15,0,0,0-2.3-.45,20.57,20.57,0,0,0-2.69-.19,9.39,9.39,0,0,0-4.63,1.12,8.34,8.34,0,0,0-3.21,3.11,8.82,8.82,0,0,0-1.18,4.6v24.05Z"/><path class="cls-1" d="M696.06,168.83V144.42h11.79v42.51H696.53v-7.72h-.44a12.6,12.6,0,0,1-4.78,6,14.11,14.11,0,0,1-8.12,2.27,14.35,14.35,0,0,1-7.5-1.94,13.16,13.16,0,0,1-5.05-5.51,18.93,18.93,0,0,1-1.85-8.55V144.42h11.8v25a8.58,8.58,0,0,0,2,6,6.87,6.87,0,0,0,5.34,2.19,8.47,8.47,0,0,0,4-1,7.71,7.71,0,0,0,3-2.92A9.11,9.11,0,0,0,696.06,168.83Z"/><path class="cls-1" d="M711.89,186.93V144.42h11.24v7.5h.5a11.76,11.76,0,0,1,4.43-5.9,13.81,13.81,0,0,1,14.86,0,10.33,10.33,0,0,1,4.1,5.88h.44a11.38,11.38,0,0,1,4.72-5.86,14.7,14.7,0,0,1,8.1-2.2,13,13,0,0,1,9.67,3.78q3.72,3.78,3.72,10.7v28.59H761.91V160.66a7,7,0,0,0-1.88-5.31,6.62,6.62,0,0,0-4.71-1.77,6.36,6.36,0,0,0-5,2,7.79,7.79,0,0,0-1.8,5.36v26H737.08V160.42a6.9,6.9,0,0,0-1.79-5,6.23,6.23,0,0,0-4.69-1.85,6.56,6.56,0,0,0-3.53,1,7,7,0,0,0-2.47,2.74,8.77,8.77,0,0,0-.92,4.11v25.52Z"/></svg>