<svg id="Layer_1" data-name="Layer 1" xmlns="http://www.w3.org/2000/svg" viewBox="0 0 565.54 300"><defs><style>.cls-1{fill:#ff6e5c;}.cls-2{fill:#ffc000;}.cls-3{fill:#ff9446;}.cls-4{fill:#00bea4;}.cls-5{fill:#ff8884;}.cls-6{fill:#7fc680;}.cls-7{fill:#a386f6;}.cls-8{fill:#1d83c6;}.cls-9{fill:#0d152f;}</style></defs><title>LOGO VERTICALcolour 1</title><path class="cls-1" d="M139.61,127.77c-.07-8.28,5-19.19,13.82-29.45a85.93,85.93,0,0,0-1.61-9.9c-5.29-23.7-19.13-40.78-30.9-38.15s-17,24-11.76,47.67c2.84,12.73,8.16,23.55,14.29,30.44C129.86,126.06,135.63,125.75,139.61,127.77Z"/><path class="cls-2" d="M148,130.39c4.42.61,9,4.16,12.92,9.73,9-2.14,19.51-8,29.12-16.82,17.88-16.43,25.75-36.95,17.59-45.83s-29.28-2.78-47.16,13.65a88.86,88.86,0,0,0-7,7.2C154.84,111.81,152.74,123.63,148,130.39Z"/><path class="cls-3" d="M139.61,127.77a9.41,9.41,0,0,1,2.7,2,9.81,9.81,0,0,1,.89,1.15,9.36,9.36,0,0,1,1.39-.44,9.48,9.48,0,0,1,3.36-.11c4.79-6.76,6.89-18.58,5.48-32.07C144.57,108.58,139.54,119.49,139.61,127.77Z"/><path class="cls-4" d="M137.34,136.34c-4.65-.11-9.48-3-13.89-8a61.49,61.49,0,0,0-20.06,12.68c-14.76,13.56-21.26,30.49-14.52,37.83s24.16,2.29,38.92-11.27a72.88,72.88,0,0,0,5.76-6C132.46,151.27,133.91,142.05,137.34,136.34Z"/><path class="cls-5" d="M137.34,136.34a14.64,14.64,0,0,1,3-3.67,16.29,16.29,0,0,1-.75-4.9c-4-2-9.75-1.71-16.16.61C127.86,133.32,132.69,136.23,137.34,136.34Z"/><path class="cls-6" d="M160.87,140.12c-6.45,1.54-12.07,1.16-16-1.4-.45,6.65-4.53,15-11.37,22.95a72,72,0,0,0,1.34,8.17c4.36,19.57,15.78,33.66,25.5,31.5s14.06-19.79,9.7-39.35A61.83,61.83,0,0,0,160.87,140.12Z"/><path class="cls-7" d="M148,130.39a16.29,16.29,0,0,1-3.41,3.59,14.57,14.57,0,0,1,.38,4.74c3.88,2.56,9.5,2.94,16,1.4C156.93,134.55,152.37,131,148,130.39Z"/><path class="cls-8" d="M144.92,138.72a10.22,10.22,0,0,1-3.17-3.16,10,10,0,0,1-1.69.53,10.41,10.41,0,0,1-2.72.25c-3.43,5.71-4.88,14.93-3.79,25.33C140.39,153.75,144.47,145.37,144.92,138.72Z"/><path class="cls-9" d="M200.42,176.46a15.66,15.66,0,0,1-6.47-1.27,10.21,10.21,0,0,1-4.47-3.78,12.69,12.69,0,0,1-.49-11.56,9.45,9.45,0,0,1,3.16-3.45,15.44,15.44,0,0,1,4.56-2,34.63,34.63,0,0,1,5.36-.93c2.21-.23,4-.45,5.33-.66a7.41,7.41,0,0,0,2.94-.92,2.06,2.06,0,0,0,.91-1.83v-.15a4.54,4.54,0,0,0-1.47-3.62,6.09,6.09,0,0,0-4.16-1.29,7.4,7.4,0,0,0-4.51,1.25,5.82,5.82,0,0,0-2.22,3.12l-9.72-.79a13.2,13.2,0,0,1,2.91-6,14,14,0,0,1,5.61-3.9,21.38,21.38,0,0,1,8-1.37,24.07,24.07,0,0,1,6.06.74,15.92,15.92,0,0,1,5.16,2.29,11.32,11.32,0,0,1,3.57,4,12.13,12.13,0,0,1,1.3,5.81v25.56h-10v-5.25h-.29a10.65,10.65,0,0,1-2.44,3.12,11.06,11.06,0,0,1-3.68,2.1A15,15,0,0,1,200.42,176.46Zm3-7.25a8.75,8.75,0,0,0,4.1-.93,7.12,7.12,0,0,0,2.78-2.51,6.42,6.42,0,0,0,1-3.57v-4a5.84,5.84,0,0,1-1.35.58c-.57.17-1.2.32-1.91.46s-1.42.27-2.12.37l-1.93.29a13.19,13.19,0,0,0-3.23.86,5.34,5.34,0,0,0-2.15,1.59,4,4,0,0,0-.76,2.48,3.78,3.78,0,0,0,1.56,3.27A6.7,6.7,0,0,0,203.43,169.21Z"/><path class="cls-9" d="M256.86,148.65l-9.62.59a5.17,5.17,0,0,0-1.06-2.23A6,6,0,0,0,244,145.4a7.57,7.57,0,0,0-3.15-.6,7.82,7.82,0,0,0-4.12,1,3.12,3.12,0,0,0-1.67,2.73,2.94,2.94,0,0,0,1.08,2.3,8.76,8.76,0,0,0,3.73,1.5l6.86,1.38q5.52,1.14,8.24,3.66a8.57,8.57,0,0,1,2.71,6.61,10.35,10.35,0,0,1-2.18,6.54,14.34,14.34,0,0,1-6,4.38,22.76,22.76,0,0,1-8.72,1.57q-7.53,0-12-3.15a12.17,12.17,0,0,1-5.22-8.58l10.34-.54a5.26,5.26,0,0,0,2.27,3.49,8.14,8.14,0,0,0,4.61,1.2,8.23,8.23,0,0,0,4.45-1.07,3.28,3.28,0,0,0,1.72-2.78,3,3,0,0,0-1.21-2.36,8.94,8.94,0,0,0-3.65-1.42l-6.57-1.3q-5.55-1.11-8.25-3.85a9.55,9.55,0,0,1-2.7-7,10.19,10.19,0,0,1,2-6.29,12.63,12.63,0,0,1,5.61-4.07,23,23,0,0,1,8.47-1.43q7.18,0,11.32,3A11.76,11.76,0,0,1,256.86,148.65Z"/><path class="cls-9" d="M260.14,190V137.84h10.37v6.37H271a13.88,13.88,0,0,1,2-3.12,10.68,10.68,0,0,1,3.45-2.67,11.86,11.86,0,0,1,5.32-1.07,14.32,14.32,0,0,1,7.65,2.16A15.05,15.05,0,0,1,295,146a24.76,24.76,0,0,1,2.1,10.84,25.12,25.12,0,0,1-2,10.7,15.22,15.22,0,0,1-5.52,6.59,14.2,14.2,0,0,1-7.81,2.23,12.15,12.15,0,0,1-5.2-1,10.66,10.66,0,0,1-3.49-2.55,12.29,12.29,0,0,1-2.07-3.13h-.32V190Zm10.29-33.17a17,17,0,0,0,.94,5.9,8.66,8.66,0,0,0,2.72,3.91,7.35,7.35,0,0,0,8.66,0,8.82,8.82,0,0,0,2.7-4,18.68,18.68,0,0,0,0-11.61,8.59,8.59,0,0,0-2.69-3.9,6.8,6.8,0,0,0-4.37-1.41,6.93,6.93,0,0,0-4.33,1.36,8.59,8.59,0,0,0-2.7,3.85A16.77,16.77,0,0,0,270.43,156.79Z"/><path class="cls-9" d="M305.16,133a5.69,5.69,0,0,1-4-1.56,5,5,0,0,1,0-7.51,5.61,5.61,0,0,1,4-1.57,5.73,5.73,0,0,1,4,1.55,5.09,5.09,0,0,1,0,7.52A5.67,5.67,0,0,1,305.16,133Zm-5.31,42.78v-37.9h10.52v37.9Z"/><path class="cls-9" d="M314.76,175.74v-37.9H325v6.61h.4a9.84,9.84,0,0,1,3.48-5.34,9.15,9.15,0,0,1,5.62-1.81,14.69,14.69,0,0,1,1.7.1,10.55,10.55,0,0,1,1.61.27V147a14,14,0,0,0-2.05-.4,19.29,19.29,0,0,0-2.39-.17,8.4,8.4,0,0,0-4.14,1,7.39,7.39,0,0,0-2.86,2.77,7.92,7.92,0,0,0-1.05,4.1v21.44Z"/><path class="cls-9" d="M355.57,176.49a20.1,20.1,0,0,1-10.06-2.39,16.05,16.05,0,0,1-6.47-6.76,24.59,24.59,0,0,1,0-20.64,16.75,16.75,0,0,1,6.4-6.88,18.55,18.55,0,0,1,9.71-2.47,20.07,20.07,0,0,1,7,1.2,15.61,15.61,0,0,1,5.67,3.59,16.22,16.22,0,0,1,3.79,6A23.91,23.91,0,0,1,373,156.6v2.88H341V153h22.11a8.09,8.09,0,0,0-1-4,7.24,7.24,0,0,0-2.73-2.76,8,8,0,0,0-4-1,8.13,8.13,0,0,0-4.23,1.09,7.93,7.93,0,0,0-2.87,2.94,8.29,8.29,0,0,0-1.06,4.08v6.2a10.56,10.56,0,0,0,1,4.86,7.44,7.44,0,0,0,3,3.16,9,9,0,0,0,4.56,1.11,9.91,9.91,0,0,0,3.21-.5,6.5,6.5,0,0,0,2.49-1.48,6.37,6.37,0,0,0,1.58-2.41l9.72.64a13.21,13.21,0,0,1-3,6.1,15.12,15.12,0,0,1-5.87,4A22.09,22.09,0,0,1,355.57,176.49Z"/><path class="cls-9" d="M221.15,208.69l-9.63.59a5.06,5.06,0,0,0-1.06-2.23,5.7,5.7,0,0,0-2.13-1.6,7.41,7.41,0,0,0-3.15-.61,7.7,7.7,0,0,0-4.12,1,3.08,3.08,0,0,0-1.68,2.72,2.92,2.92,0,0,0,1.09,2.3,8.65,8.65,0,0,0,3.73,1.5l6.85,1.39q5.53,1.13,8.25,3.65A8.59,8.59,0,0,1,222,224a10.41,10.41,0,0,1-2.18,6.54,14.21,14.21,0,0,1-6,4.38,22.72,22.72,0,0,1-8.72,1.57q-7.53,0-12-3.15a12.17,12.17,0,0,1-5.22-8.57l10.34-.55a5.24,5.24,0,0,0,2.27,3.49,8.17,8.17,0,0,0,4.62,1.2,8.26,8.26,0,0,0,4.45-1.07,3.27,3.27,0,0,0,1.72-2.78,2.93,2.93,0,0,0-1.21-2.35,8.79,8.79,0,0,0-3.66-1.42L199.9,220q-5.55-1.11-8.25-3.85a9.51,9.51,0,0,1-2.71-7,10.21,10.21,0,0,1,2-6.3,12.62,12.62,0,0,1,5.6-4.07,23.06,23.06,0,0,1,8.48-1.43q7.19,0,11.31,3A11.7,11.7,0,0,1,221.15,208.69Z"/><path class="cls-9" d="M224.43,250V197.88H234.8v6.37h.46a13.6,13.6,0,0,1,2-3.12,10.57,10.57,0,0,1,3.45-2.67,11.86,11.86,0,0,1,5.32-1.07,14.32,14.32,0,0,1,7.65,2.16,15.12,15.12,0,0,1,5.6,6.49,24.79,24.79,0,0,1,2.1,10.84,25.12,25.12,0,0,1-2,10.7,15.19,15.19,0,0,1-5.53,6.59A14.18,14.18,0,0,1,246,236.4a12,12,0,0,1-5.19-1,10.42,10.42,0,0,1-3.49-2.55,12.75,12.75,0,0,1-2.08-3.12h-.32V250Zm10.29-33.17a16.75,16.75,0,0,0,.94,5.9,8.65,8.65,0,0,0,2.71,3.91,6.81,6.81,0,0,0,4.32,1.4,6.7,6.7,0,0,0,4.34-1.42,8.76,8.76,0,0,0,2.71-4,17.09,17.09,0,0,0,.92-5.84,16.72,16.72,0,0,0-.91-5.77,8.67,8.67,0,0,0-2.69-3.9,6.82,6.82,0,0,0-4.37-1.41,6.93,6.93,0,0,0-4.33,1.36,8.44,8.44,0,0,0-2.7,3.85A16.54,16.54,0,0,0,234.72,216.83Z"/><path class="cls-9" d="M281.54,236.53a20.16,20.16,0,0,1-10.05-2.38,16.1,16.1,0,0,1-6.48-6.77,24.59,24.59,0,0,1,0-20.64,16.75,16.75,0,0,1,6.4-6.88,18.58,18.58,0,0,1,9.72-2.47,20,20,0,0,1,7,1.2,15.78,15.78,0,0,1,5.68,3.59,16.24,16.24,0,0,1,3.78,6,23.85,23.85,0,0,1,1.36,8.45v2.88h-32V213h22.11a8,8,0,0,0-1-4,7.14,7.14,0,0,0-2.73-2.75,7.9,7.9,0,0,0-4-1,8.08,8.08,0,0,0-4.23,1.09,8,8,0,0,0-2.88,2.94,8.44,8.44,0,0,0-1.06,4.09v6.19a10.53,10.53,0,0,0,1.05,4.86,7.5,7.5,0,0,0,3,3.16,9,9,0,0,0,4.57,1.11,10,10,0,0,0,3.21-.49,6.76,6.76,0,0,0,2.49-1.48,6.61,6.61,0,0,0,1.58-2.42l9.72.64a13.24,13.24,0,0,1-3,6.11,15.17,15.17,0,0,1-5.88,4A21.9,21.9,0,0,1,281.54,236.53Z"/><path class="cls-9" d="M318.82,236.53a19.27,19.27,0,0,1-10-2.48,16.58,16.58,0,0,1-6.42-6.9,24.34,24.34,0,0,1,0-20.4,16.74,16.74,0,0,1,6.43-6.88,19.09,19.09,0,0,1,9.92-2.48,19.78,19.78,0,0,1,8.69,1.8,14.48,14.48,0,0,1,5.89,5.06,14.86,14.86,0,0,1,2.4,7.65h-9.92a7.79,7.79,0,0,0-2.21-4.58,6.42,6.42,0,0,0-4.68-1.74,7,7,0,0,0-4.25,1.32,8.56,8.56,0,0,0-2.83,3.84,16.45,16.45,0,0,0-1,6.09,16.79,16.79,0,0,0,1,6.17,8.55,8.55,0,0,0,2.82,3.88,7.51,7.51,0,0,0,7.52.59,6.25,6.25,0,0,0,2.39-2.16,8.25,8.25,0,0,0,1.25-3.42h9.92a15.57,15.57,0,0,1-2.36,7.64,14.33,14.33,0,0,1-5.81,5.15A19.44,19.44,0,0,1,318.82,236.53Z"/><path class="cls-9" d="M358.46,197.88v7.9H335.63v-7.9Zm-17.64-9.08h10.51v35.34a4.82,4.82,0,0,0,.44,2.26,2.43,2.43,0,0,0,1.25,1.12,5,5,0,0,0,1.86.32,7.35,7.35,0,0,0,1.48-.14l1.14-.2,1.65,7.82c-.53.16-1.27.36-2.22.58a18.68,18.68,0,0,1-3.48.41,15.92,15.92,0,0,1-6.65-1,9.25,9.25,0,0,1-4.43-3.6,11,11,0,0,1-1.55-6.17Z"/><path class="cls-9" d="M360.67,235.79V197.88h10.19v6.62h.39a9.84,9.84,0,0,1,3.48-5.35,9.2,9.2,0,0,1,5.63-1.81,15,15,0,0,1,1.7.1,14.15,14.15,0,0,1,1.61.27V207a14.28,14.28,0,0,0-2.05-.4,19.44,19.44,0,0,0-2.4-.17,8.39,8.39,0,0,0-4.13,1,7.42,7.42,0,0,0-2.86,2.78,7.88,7.88,0,0,0-1.05,4.09v21.45Z"/><path class="cls-9" d="M409.38,219.65V197.88h10.51v37.91H409.8V228.9h-.39a11.28,11.28,0,0,1-4.26,5.36,12.56,12.56,0,0,1-7.24,2,12.77,12.77,0,0,1-6.69-1.73,11.79,11.79,0,0,1-4.51-4.91,17,17,0,0,1-1.64-7.62V197.88h10.52v22.26a7.62,7.62,0,0,0,1.8,5.31,6.12,6.12,0,0,0,4.76,2,7.5,7.5,0,0,0,3.55-.88,6.69,6.69,0,0,0,2.68-2.6A8.09,8.09,0,0,0,409.38,219.65Z"/><path class="cls-9" d="M424.26,235.79V197.88h10v6.69h.44a10.58,10.58,0,0,1,3.95-5.26,12.34,12.34,0,0,1,13.25,0,9.22,9.22,0,0,1,3.65,5.24h.4a10.12,10.12,0,0,1,4.2-5.22,13.05,13.05,0,0,1,7.22-2,11.58,11.58,0,0,1,8.63,3.37q3.32,3.36,3.32,9.54v25.49H468.85V212.37a6.2,6.2,0,0,0-1.68-4.74,5.9,5.9,0,0,0-4.19-1.58,5.69,5.69,0,0,0-4.47,1.81,7,7,0,0,0-1.61,4.78v23.15H446.71V212.15a6.17,6.17,0,0,0-1.59-4.45,5.54,5.54,0,0,0-4.18-1.65,5.75,5.75,0,0,0-3.15.88,6.13,6.13,0,0,0-2.2,2.44,7.78,7.78,0,0,0-.82,3.66v22.76Z"/></svg>