<svg id="Layer_1" data-name="Layer 1" xmlns="http://www.w3.org/2000/svg" viewBox="0 0 565.54 300"><defs><style>.cls-1{fill:#fff;}.cls-2{fill:#e5e5e5;}</style></defs><title>LOGO VERTICALwhite</title><path class="cls-1" d="M141.45,127.77c-.07-8.28,5-19.19,13.82-29.45a88.23,88.23,0,0,0-1.62-9.9c-5.29-23.7-19.12-40.78-30.9-38.15s-17,24-11.75,47.67c2.84,12.74,8.15,23.55,14.28,30.44C131.7,126.06,137.47,125.75,141.45,127.77Z"/><path class="cls-1" d="M149.79,130.39c4.42.61,9,4.16,12.92,9.73,9-2.14,19.5-8,29.11-16.82,17.88-16.43,25.76-36.95,17.59-45.83s-29.27-2.78-47.16,13.65a90.41,90.41,0,0,0-7,7.2C156.68,111.81,154.57,123.63,149.79,130.39Z"/><path class="cls-2" d="M141.45,127.77a9.23,9.23,0,0,1,2.69,2,9.81,9.81,0,0,1,.89,1.15,9.36,9.36,0,0,1,1.39-.44,9.53,9.53,0,0,1,3.37-.11c4.78-6.76,6.89-18.58,5.48-32.07C146.41,108.58,141.38,119.49,141.45,127.77Z"/><path class="cls-1" d="M139.17,136.35c-4.65-.12-9.48-3-13.89-8a61.6,61.6,0,0,0-20.06,12.68C90.46,154.62,84,171.56,90.7,178.89s24.16,2.29,38.92-11.27a72.89,72.89,0,0,0,5.77-5.94C134.3,151.27,135.75,142.06,139.17,136.35Z"/><path class="cls-2" d="M139.17,136.35a14.52,14.52,0,0,1,3-3.68,16.29,16.29,0,0,1-.74-4.9c-4-2-9.75-1.71-16.17.61C129.69,133.33,134.52,136.23,139.17,136.35Z"/><path class="cls-1" d="M162.71,140.12c-6.45,1.54-12.08,1.16-16-1.4-.45,6.65-4.52,15-11.36,23a70.41,70.41,0,0,0,1.33,8.17c4.37,19.56,15.78,33.65,25.5,31.49s14.07-19.79,9.7-39.35A61.64,61.64,0,0,0,162.71,140.12Z"/><path class="cls-2" d="M149.79,130.39a16.1,16.1,0,0,1-3.42,3.59,14.57,14.57,0,0,1,.38,4.74c3.88,2.56,9.51,2.94,16,1.4C158.77,134.55,154.21,131,149.79,130.39Z"/><path class="cls-2" d="M146.75,138.72a11,11,0,0,1-2.09-1.76,11.34,11.34,0,0,1-1.08-1.4,11,11,0,0,1-1.68.54,11.38,11.38,0,0,1-2.73.25c-3.42,5.71-4.87,14.92-3.78,25.33C142.23,153.76,146.3,145.37,146.75,138.72Z"/><path class="cls-1" d="M202.25,176.46a15.58,15.58,0,0,1-6.46-1.27,10.24,10.24,0,0,1-4.48-3.78,11.12,11.12,0,0,1-1.64-6.25,11,11,0,0,1,1.16-5.31A9.29,9.29,0,0,1,194,156.4a15.5,15.5,0,0,1,4.55-2,34.55,34.55,0,0,1,5.37-.93c2.2-.23,4-.45,5.33-.66a7.41,7.41,0,0,0,2.93-.92,2.06,2.06,0,0,0,.92-1.83v-.15a4.57,4.57,0,0,0-1.47-3.63,6.16,6.16,0,0,0-4.16-1.28,7.43,7.43,0,0,0-4.52,1.25,5.88,5.88,0,0,0-2.22,3.12L191,148.6a13.2,13.2,0,0,1,2.91-6,14.06,14.06,0,0,1,5.62-3.9,21.31,21.31,0,0,1,8-1.37,24.18,24.18,0,0,1,6.06.74,16,16,0,0,1,5.15,2.29,11.22,11.22,0,0,1,3.57,4,12.13,12.13,0,0,1,1.31,5.81v25.56h-10v-5.25h-.3a10.65,10.65,0,0,1-2.44,3.12,11,11,0,0,1-3.68,2.1A15,15,0,0,1,202.25,176.46Zm3-7.26a8.72,8.72,0,0,0,4.1-.92,7.22,7.22,0,0,0,2.79-2.51,6.5,6.5,0,0,0,1-3.57v-4a5.09,5.09,0,0,1-1.35.58,17.24,17.24,0,0,1-1.91.47c-.71.14-1.41.27-2.12.37l-1.92.29a13.15,13.15,0,0,0-3.24.86,5.3,5.3,0,0,0-2.14,1.59,4,4,0,0,0-.77,2.48,3.76,3.76,0,0,0,1.57,3.27A6.64,6.64,0,0,0,205.26,169.2Z"/><path class="cls-1" d="M258.16,148.65l-9.62.59a5.12,5.12,0,0,0-1.06-2.23,6,6,0,0,0-2.14-1.61,7.57,7.57,0,0,0-3.15-.6,7.82,7.82,0,0,0-4.12,1,3.1,3.1,0,0,0-1.67,2.73,2.94,2.94,0,0,0,1.08,2.3,8.71,8.71,0,0,0,3.73,1.5l6.86,1.38q5.52,1.14,8.24,3.65A8.61,8.61,0,0,1,259,164a10.35,10.35,0,0,1-2.18,6.54,14.41,14.41,0,0,1-6,4.38,22.82,22.82,0,0,1-8.73,1.56q-7.51,0-12-3.14a12.16,12.16,0,0,1-5.21-8.58l10.34-.54a5.23,5.23,0,0,0,2.27,3.49,8.14,8.14,0,0,0,4.61,1.2,8.23,8.23,0,0,0,4.45-1.07,3.28,3.28,0,0,0,1.72-2.78,3,3,0,0,0-1.21-2.36,8.94,8.94,0,0,0-3.65-1.42l-6.57-1.3q-5.55-1.11-8.25-3.85a9.55,9.55,0,0,1-2.7-7,10.19,10.19,0,0,1,2-6.29,12.58,12.58,0,0,1,5.61-4.07,22.8,22.8,0,0,1,8.47-1.43q7.18,0,11.32,3A11.76,11.76,0,0,1,258.16,148.65Z"/><path class="cls-1" d="M260.92,190V137.84h10.37v6.37h.46a14.3,14.3,0,0,1,2-3.12,10.55,10.55,0,0,1,3.45-2.67,11.73,11.73,0,0,1,5.32-1.07,14.32,14.32,0,0,1,7.65,2.16,15.12,15.12,0,0,1,5.6,6.49,24.76,24.76,0,0,1,2.1,10.84,25.12,25.12,0,0,1-2,10.7,15.24,15.24,0,0,1-5.53,6.59,14.16,14.16,0,0,1-7.81,2.23,12.1,12.1,0,0,1-5.19-1,10.81,10.81,0,0,1-3.49-2.55,12.61,12.61,0,0,1-2.08-3.13h-.32V190Zm10.29-33.17a17,17,0,0,0,.94,5.9,8.65,8.65,0,0,0,2.71,3.91,7.37,7.37,0,0,0,8.67,0,8.82,8.82,0,0,0,2.7-4,16.89,16.89,0,0,0,.92-5.84,16.68,16.68,0,0,0-.91-5.77,8.59,8.59,0,0,0-2.69-3.9,6.8,6.8,0,0,0-4.37-1.41,6.93,6.93,0,0,0-4.33,1.36,8.46,8.46,0,0,0-2.7,3.85A16.77,16.77,0,0,0,271.21,156.79Z"/><path class="cls-1" d="M305.41,133a5.68,5.68,0,0,1-4-1.55,5,5,0,0,1,0-7.51,5.61,5.61,0,0,1,4-1.57,5.73,5.73,0,0,1,4,1.55,5.09,5.09,0,0,1,0,7.52A5.66,5.66,0,0,1,305.41,133Zm-5.31,42.79v-37.9h10.52v37.9Z"/><path class="cls-1" d="M314.5,175.74v-37.9h10.19v6.61h.39a9.84,9.84,0,0,1,3.48-5.34,9.18,9.18,0,0,1,5.63-1.81,15,15,0,0,1,1.7.1,10.41,10.41,0,0,1,1.6.27V147a13.82,13.82,0,0,0-2-.4,19.44,19.44,0,0,0-2.4-.17,8.39,8.39,0,0,0-4.13,1,7.39,7.39,0,0,0-2.86,2.77,7.92,7.92,0,0,0-1.05,4.1v21.44Z"/><path class="cls-1" d="M354.76,176.48a20.1,20.1,0,0,1-10.06-2.38,16.13,16.13,0,0,1-6.48-6.76,24.59,24.59,0,0,1,0-20.64,16.8,16.8,0,0,1,6.41-6.89,18.61,18.61,0,0,1,9.71-2.46,20.2,20.2,0,0,1,7,1.19,15.83,15.83,0,0,1,5.68,3.59,16.47,16.47,0,0,1,3.79,6,24.12,24.12,0,0,1,1.35,8.45v2.89h-32V153h22.11a8,8,0,0,0-1-4,7.28,7.28,0,0,0-2.72-2.76,8.67,8.67,0,0,0-8.27.1,7.81,7.81,0,0,0-2.88,2.94,8.4,8.4,0,0,0-1.06,4.08v6.2a10.56,10.56,0,0,0,1.05,4.86,7.52,7.52,0,0,0,3,3.16,9,9,0,0,0,4.56,1.11,9.91,9.91,0,0,0,3.21-.5,6.63,6.63,0,0,0,2.49-1.48,6.33,6.33,0,0,0,1.58-2.42l9.72.65a13.21,13.21,0,0,1-3,6.1,15.12,15.12,0,0,1-5.87,4A22.17,22.17,0,0,1,354.76,176.48Z"/><path class="cls-1" d="M223,208.69l-9.62.59a5.17,5.17,0,0,0-1.06-2.23,5.82,5.82,0,0,0-2.14-1.6,7.39,7.39,0,0,0-3.14-.61,7.74,7.74,0,0,0-4.13,1,3.09,3.09,0,0,0-1.67,2.72,2.94,2.94,0,0,0,1.08,2.3,8.76,8.76,0,0,0,3.73,1.5l6.86,1.38q5.52,1.14,8.24,3.66a8.57,8.57,0,0,1,2.71,6.61,10.35,10.35,0,0,1-2.18,6.54,14.32,14.32,0,0,1-6,4.38,22.76,22.76,0,0,1-8.72,1.57q-7.53,0-12-3.15a12.17,12.17,0,0,1-5.22-8.57l10.34-.55a5.2,5.2,0,0,0,2.27,3.49A8.16,8.16,0,0,0,207,229a8.29,8.29,0,0,0,4.46-1.07,3.28,3.28,0,0,0,1.71-2.78,3,3,0,0,0-1.21-2.36,8.81,8.81,0,0,0-3.65-1.41L201.73,220q-5.55-1.11-8.25-3.85a9.55,9.55,0,0,1-2.7-7,10.19,10.19,0,0,1,2-6.29,12.63,12.63,0,0,1,5.61-4.07,23,23,0,0,1,8.47-1.43q7.18,0,11.32,3A11.76,11.76,0,0,1,223,208.69Z"/><path class="cls-1" d="M225.74,250V197.88h10.37v6.37h.47a13.88,13.88,0,0,1,2-3.12,10.68,10.68,0,0,1,3.45-2.67,11.86,11.86,0,0,1,5.32-1.07,14.32,14.32,0,0,1,7.65,2.16,15.05,15.05,0,0,1,5.6,6.49,24.79,24.79,0,0,1,2.1,10.84,25.12,25.12,0,0,1-2,10.7,15.22,15.22,0,0,1-5.52,6.59,14.21,14.21,0,0,1-7.82,2.23,12,12,0,0,1-5.19-1,10.52,10.52,0,0,1-3.49-2.55,12.42,12.42,0,0,1-2.07-3.12h-.32V250ZM236,216.83a17,17,0,0,0,.94,5.9,8.66,8.66,0,0,0,2.72,3.91,7.35,7.35,0,0,0,8.66,0,8.82,8.82,0,0,0,2.7-4,18.87,18.87,0,0,0,0-11.61,8.59,8.59,0,0,0-2.69-3.9,6.8,6.8,0,0,0-4.37-1.41,6.93,6.93,0,0,0-4.33,1.36A8.59,8.59,0,0,0,237,211,16.77,16.77,0,0,0,236,216.83Z"/><path class="cls-1" d="M282.34,236.53a20.1,20.1,0,0,1-10.06-2.39,16.13,16.13,0,0,1-6.48-6.76,24.59,24.59,0,0,1,0-20.64,16.77,16.77,0,0,1,6.41-6.88,18.52,18.52,0,0,1,9.71-2.47,20,20,0,0,1,7,1.2,15.56,15.56,0,0,1,5.68,3.59,16.39,16.39,0,0,1,3.79,6,24.08,24.08,0,0,1,1.35,8.45v2.88h-32V213h22.11a8,8,0,0,0-1-4,7.19,7.19,0,0,0-2.72-2.75,7.94,7.94,0,0,0-4-1,8.08,8.08,0,0,0-4.23,1.09,8,8,0,0,0-2.88,2.94,8.43,8.43,0,0,0-1.06,4.08v6.2a10.53,10.53,0,0,0,1.05,4.86,7.46,7.46,0,0,0,3,3.16,9,9,0,0,0,4.56,1.11,10.2,10.2,0,0,0,3.21-.49,6.76,6.76,0,0,0,2.49-1.48,6.48,6.48,0,0,0,1.58-2.42l9.72.64a13.29,13.29,0,0,1-3,6.11,15.21,15.21,0,0,1-5.87,4A22.17,22.17,0,0,1,282.34,236.53Z"/><path class="cls-1" d="M319.09,236.53a19.27,19.27,0,0,1-10-2.48,16.58,16.58,0,0,1-6.42-6.9,24.34,24.34,0,0,1,0-20.4,16.74,16.74,0,0,1,6.43-6.88,19.09,19.09,0,0,1,9.92-2.48,19.78,19.78,0,0,1,8.69,1.8,14.58,14.58,0,0,1,5.9,5.06A15,15,0,0,1,336,211.9H326.1a7.79,7.79,0,0,0-2.21-4.58,6.41,6.41,0,0,0-4.67-1.74A7,7,0,0,0,315,206.9a8.56,8.56,0,0,0-2.83,3.84,16.45,16.45,0,0,0-1,6.09,16.79,16.79,0,0,0,1,6.17,8.49,8.49,0,0,0,2.83,3.88,7.5,7.5,0,0,0,7.51.59,6.25,6.25,0,0,0,2.39-2.16,8.16,8.16,0,0,0,1.25-3.42H336a15.46,15.46,0,0,1-2.36,7.64,14.33,14.33,0,0,1-5.81,5.15A19.41,19.41,0,0,1,319.09,236.53Z"/><path class="cls-1" d="M358.2,197.88v7.9H335.38v-7.9Zm-17.64-9.08h10.51v35.34a4.69,4.69,0,0,0,.45,2.26,2.41,2.41,0,0,0,1.24,1.12,5.12,5.12,0,0,0,1.87.32,7.49,7.49,0,0,0,1.48-.14l1.13-.21,1.65,7.83c-.52.16-1.26.36-2.22.58a18.77,18.77,0,0,1-3.48.4,15.77,15.77,0,0,1-6.65-1,9.3,9.3,0,0,1-4.43-3.6,11,11,0,0,1-1.55-6.17Z"/><path class="cls-1" d="M359.87,235.79V197.88h10.19v6.62h.39a9.84,9.84,0,0,1,3.48-5.35,9.2,9.2,0,0,1,5.63-1.81,14.82,14.82,0,0,1,1.7.1,12,12,0,0,1,1.61.27V207a14.28,14.28,0,0,0-2.05-.4,19.31,19.31,0,0,0-2.4-.17,8.39,8.39,0,0,0-4.13,1,7.42,7.42,0,0,0-2.86,2.78,7.88,7.88,0,0,0-1.05,4.09v21.45Z"/><path class="cls-1" d="M408.07,219.65V197.88h10.51v37.91H408.49V228.9h-.4a11.17,11.17,0,0,1-4.26,5.36,12.54,12.54,0,0,1-7.24,2,12.82,12.82,0,0,1-6.69-1.73,11.84,11.84,0,0,1-4.5-4.91,16.87,16.87,0,0,1-1.64-7.62V197.88h10.51v22.26a7.71,7.71,0,0,0,1.8,5.31,6.15,6.15,0,0,0,4.77,2,7.53,7.53,0,0,0,3.55-.88,6.82,6.82,0,0,0,2.68-2.6A8.18,8.18,0,0,0,408.07,219.65Z"/><path class="cls-1" d="M422.42,235.79V197.88h10v6.69h.45a10.56,10.56,0,0,1,3.94-5.26,12.35,12.35,0,0,1,13.26,0,9.27,9.27,0,0,1,3.65,5.24h.39a10.19,10.19,0,0,1,4.21-5.22,13,13,0,0,1,7.22-2,11.56,11.56,0,0,1,8.62,3.37q3.31,3.36,3.32,9.53v25.5H467V212.37a6.23,6.23,0,0,0-1.67-4.74,5.91,5.91,0,0,0-4.2-1.58,5.69,5.69,0,0,0-4.47,1.81,7,7,0,0,0-1.6,4.78v23.15H444.88V212.15a6.17,6.17,0,0,0-1.59-4.45,5.56,5.56,0,0,0-4.19-1.65,5.74,5.74,0,0,0-3.14.88,6.15,6.15,0,0,0-2.21,2.44,7.87,7.87,0,0,0-.81,3.66v22.76Z"/></svg>