<svg id="Layer_1" data-name="Layer 1" xmlns="http://www.w3.org/2000/svg" viewBox="0 0 900 300"><defs><style>.cls-1{fill:#fff;}.cls-2{fill:#ff6e5c;}.cls-3{fill:#ffc000;}.cls-4{fill:#ff9446;}.cls-5{fill:#00bea4;}.cls-6{fill:#ff8884;}.cls-7{fill:#7fc680;}.cls-8{fill:#a386f6;}.cls-9{fill:#1d83c6;}</style></defs><title>LOGO HORIZONTALcolour 2</title><path class="cls-1" d="M141.45,187.73a17.57,17.57,0,0,1-7.25-1.42,11.39,11.39,0,0,1-5-4.24,12.5,12.5,0,0,1-1.84-7,12.35,12.35,0,0,1,1.3-5.95,10.5,10.5,0,0,1,3.54-3.88,17.12,17.12,0,0,1,5.11-2.21,38.93,38.93,0,0,1,6-1.06c2.47-.25,4.46-.5,6-.73a8.34,8.34,0,0,0,3.29-1,2.3,2.3,0,0,0,1-2V158a5.14,5.14,0,0,0-1.64-4.07,6.89,6.89,0,0,0-4.67-1.44,8.3,8.3,0,0,0-5.06,1.4,6.5,6.5,0,0,0-2.49,3.5l-10.91-.89a14.82,14.82,0,0,1,3.27-6.71,15.79,15.79,0,0,1,6.29-4.37,24,24,0,0,1,9-1.54,27.46,27.46,0,0,1,6.79.83,17.93,17.93,0,0,1,5.79,2.58,12.56,12.56,0,0,1,4,4.47,13.56,13.56,0,0,1,1.47,6.52v28.67H154.21V181h-.33a11.84,11.84,0,0,1-2.74,3.5,12.4,12.4,0,0,1-4.12,2.35A16.9,16.9,0,0,1,141.45,187.73Zm3.38-8.13a9.8,9.8,0,0,0,4.59-1,8,8,0,0,0,3.13-2.81,7.25,7.25,0,0,0,1.14-4v-4.52a5.87,5.87,0,0,1-1.51.65,21.15,21.15,0,0,1-2.15.53c-.79.16-1.58.3-2.38.42l-2.16.31a15,15,0,0,0-3.62,1,5.85,5.85,0,0,0-2.41,1.79,4.45,4.45,0,0,0-.86,2.78,4.23,4.23,0,0,0,1.76,3.67A7.48,7.48,0,0,0,144.83,179.6Z"/><path class="cls-1" d="M203.88,156.54l-10.8.66a5.63,5.63,0,0,0-1.19-2.5,6.54,6.54,0,0,0-2.39-1.8,8.48,8.48,0,0,0-3.53-.68,8.81,8.81,0,0,0-4.63,1.15,3.48,3.48,0,0,0-1.88,3.06,3.28,3.28,0,0,0,1.22,2.57,9.59,9.59,0,0,0,4.18,1.69l7.69,1.55q6.21,1.27,9.25,4.1a9.63,9.63,0,0,1,3,7.42,11.57,11.57,0,0,1-2.45,7.33A15.89,15.89,0,0,1,195.7,186a25.33,25.33,0,0,1-9.79,1.76q-8.44,0-13.44-3.53a13.62,13.62,0,0,1-5.85-9.62l11.6-.6a5.91,5.91,0,0,0,2.54,3.91,9.14,9.14,0,0,0,5.18,1.34,9.25,9.25,0,0,0,5-1.2,3.66,3.66,0,0,0,1.92-3.11,3.31,3.31,0,0,0-1.36-2.65,9.88,9.88,0,0,0-4.09-1.59L180,169.24q-6.22-1.25-9.26-4.31a10.7,10.7,0,0,1-3-7.84A11.41,11.41,0,0,1,170,150a14.14,14.14,0,0,1,6.28-4.57,25.81,25.81,0,0,1,9.51-1.61q8.05,0,12.69,3.41A13.19,13.19,0,0,1,203.88,156.54Z"/><path class="cls-1" d="M206.7,202.88V144.42h11.63v7.14h.52a15.53,15.53,0,0,1,2.26-3.5,11.81,11.81,0,0,1,3.87-3,13.14,13.14,0,0,1,6-1.21,16.08,16.08,0,0,1,8.58,2.42,17,17,0,0,1,6.28,7.28,27.85,27.85,0,0,1,2.36,12.17,28.29,28.29,0,0,1-2.29,12,17,17,0,0,1-6.2,7.39,15.91,15.91,0,0,1-8.76,2.5,13.5,13.5,0,0,1-5.83-1.13,11.89,11.89,0,0,1-3.91-2.87,14.21,14.21,0,0,1-2.33-3.5h-.36v22.76Zm11.54-37.21a19,19,0,0,0,1,6.62,9.86,9.86,0,0,0,3.05,4.39,8.29,8.29,0,0,0,9.72,0,10,10,0,0,0,3-4.43,19,19,0,0,0,1-6.55,18.82,18.82,0,0,0-1-6.47,9.65,9.65,0,0,0-3-4.38,8.46,8.46,0,0,0-9.75,0,9.52,9.52,0,0,0-3,4.32A18.69,18.69,0,0,0,218.24,165.67Z"/><path class="cls-1" d="M256.33,138.94a6.42,6.42,0,0,1-4.51-1.75,5.51,5.51,0,0,1-1.89-4.21,5.58,5.58,0,0,1,1.89-4.22A6.34,6.34,0,0,1,256.3,127a6.42,6.42,0,0,1,4.53,1.74,5.69,5.69,0,0,1,0,8.43A6.36,6.36,0,0,1,256.33,138.94Zm-5.95,48V144.42h11.79v42.51Z"/><path class="cls-1" d="M266.24,186.93V144.42h11.43v7.41h.44a11.11,11.11,0,0,1,3.91-6,10.33,10.33,0,0,1,6.31-2,16.33,16.33,0,0,1,1.91.11,13,13,0,0,1,1.8.3v10.47a15,15,0,0,0-2.3-.45,20.45,20.45,0,0,0-2.69-.19,9.42,9.42,0,0,0-4.63,1.12,8.34,8.34,0,0,0-3.21,3.11,8.82,8.82,0,0,0-1.18,4.6v24.05Z"/><path class="cls-1" d="M311.11,187.76a22.57,22.57,0,0,1-11.28-2.67,18.12,18.12,0,0,1-7.26-7.58,27.57,27.57,0,0,1,0-23.16,18.85,18.85,0,0,1,7.18-7.72,20.89,20.89,0,0,1,10.89-2.77,22.4,22.4,0,0,1,7.85,1.35,17.61,17.61,0,0,1,6.37,4,18.54,18.54,0,0,1,4.25,6.74,27.09,27.09,0,0,1,1.52,9.48v3.24h-35.9v-7.31h24.8a9,9,0,0,0-1.11-4.51,8,8,0,0,0-3.06-3.08,8.89,8.89,0,0,0-4.52-1.13,9.09,9.09,0,0,0-4.75,1.24,8.76,8.76,0,0,0-3.22,3.29,9.36,9.36,0,0,0-1.2,4.58v6.95a11.87,11.87,0,0,0,1.18,5.45,8.4,8.4,0,0,0,3.34,3.54,10,10,0,0,0,5.12,1.25,11.14,11.14,0,0,0,3.6-.55,7.59,7.59,0,0,0,2.79-1.66,7.13,7.13,0,0,0,1.77-2.72l10.91.72A14.86,14.86,0,0,1,327,181.6a17.08,17.08,0,0,1-6.59,4.54A24.77,24.77,0,0,1,311.11,187.76Z"/><path class="cls-1" d="M489.11,156.54l-10.8.66a5.63,5.63,0,0,0-1.19-2.5,6.37,6.37,0,0,0-2.39-1.8,8.45,8.45,0,0,0-3.53-.68,8.74,8.74,0,0,0-4.62,1.15,3.46,3.46,0,0,0-1.88,3.06,3.27,3.27,0,0,0,1.21,2.57,9.7,9.7,0,0,0,4.18,1.69l7.7,1.55q6.19,1.27,9.24,4.1a9.64,9.64,0,0,1,3.05,7.42,11.63,11.63,0,0,1-2.45,7.33,15.93,15.93,0,0,1-6.7,4.91,25.25,25.25,0,0,1-9.78,1.76q-8.44,0-13.44-3.53a13.64,13.64,0,0,1-5.86-9.62l11.6-.6a5.89,5.89,0,0,0,2.55,3.91,9.11,9.11,0,0,0,5.17,1.34,9.23,9.23,0,0,0,5-1.2,3.66,3.66,0,0,0,1.92-3.11,3.33,3.33,0,0,0-1.35-2.65,9.94,9.94,0,0,0-4.1-1.59l-7.36-1.47q-6.22-1.25-9.26-4.31a10.7,10.7,0,0,1-3-7.84,11.35,11.35,0,0,1,2.23-7.05,14.08,14.08,0,0,1,6.28-4.57,25.73,25.73,0,0,1,9.51-1.61q8.06,0,12.69,3.41A13.18,13.18,0,0,1,489.11,156.54Z"/><path class="cls-1" d="M491.94,202.88V144.42h11.62v7.14h.53a15.47,15.47,0,0,1,2.25-3.5,11.85,11.85,0,0,1,3.88-3,13.07,13.07,0,0,1,6-1.21,16.08,16.08,0,0,1,8.58,2.42,17,17,0,0,1,6.29,7.28,27.85,27.85,0,0,1,2.35,12.17,28.29,28.29,0,0,1-2.28,12,17.09,17.09,0,0,1-6.2,7.39,16,16,0,0,1-8.76,2.5,13.47,13.47,0,0,1-5.83-1.13,11.93,11.93,0,0,1-3.92-2.87,14.16,14.16,0,0,1-2.32-3.5h-.36v22.76Zm11.54-37.21a19,19,0,0,0,1,6.62,9.84,9.84,0,0,0,3,4.39,7.64,7.64,0,0,0,4.85,1.56,7.56,7.56,0,0,0,4.87-1.59,9.8,9.8,0,0,0,3-4.43,19,19,0,0,0,1-6.55,18.57,18.57,0,0,0-1-6.47,9.64,9.64,0,0,0-3-4.38,8.48,8.48,0,0,0-9.76,0,9.43,9.43,0,0,0-3,4.32A18.69,18.69,0,0,0,503.48,165.67Z"/><path class="cls-1" d="M555.14,187.76a22.52,22.52,0,0,1-11.28-2.67,18.09,18.09,0,0,1-7.27-7.58,27.57,27.57,0,0,1,0-23.16,18.85,18.85,0,0,1,7.18-7.72,20.93,20.93,0,0,1,10.9-2.77,22.34,22.34,0,0,1,7.84,1.35,17.61,17.61,0,0,1,6.37,4,18.41,18.41,0,0,1,4.25,6.74,27.09,27.09,0,0,1,1.52,9.48v3.24h-35.9v-7.31h24.8a9,9,0,0,0-1.11-4.51,7.88,7.88,0,0,0-3.06-3.08,8.87,8.87,0,0,0-4.52-1.13,9.12,9.12,0,0,0-4.75,1.24,8.84,8.84,0,0,0-3.22,3.29,9.25,9.25,0,0,0-1.19,4.58v6.95a11.87,11.87,0,0,0,1.17,5.45,8.46,8.46,0,0,0,3.34,3.54,10,10,0,0,0,5.12,1.25,11.14,11.14,0,0,0,3.6-.55,7.51,7.51,0,0,0,2.79-1.66A7.27,7.27,0,0,0,563.5,174l10.9.72A14.77,14.77,0,0,1,571,181.6a17,17,0,0,1-6.59,4.54A24.72,24.72,0,0,1,555.14,187.76Z"/><path class="cls-1" d="M596.08,187.76A21.57,21.57,0,0,1,584.86,185a18.44,18.44,0,0,1-7.2-7.74,27.25,27.25,0,0,1,0-22.87,18.75,18.75,0,0,1,7.21-7.73A21.43,21.43,0,0,1,596,143.86a22.24,22.24,0,0,1,9.74,2,16.32,16.32,0,0,1,6.62,5.68,16.62,16.62,0,0,1,2.68,8.58H603.94a8.73,8.73,0,0,0-2.47-5.14,7.22,7.22,0,0,0-5.25-1.95,7.91,7.91,0,0,0-4.77,1.48,9.53,9.53,0,0,0-3.17,4.31,18.24,18.24,0,0,0-1.14,6.83,19.07,19.07,0,0,0,1.12,6.92,9.61,9.61,0,0,0,3.17,4.35,7.89,7.89,0,0,0,4.79,1.49,7.77,7.77,0,0,0,3.64-.83,7.08,7.08,0,0,0,2.69-2.42,9.21,9.21,0,0,0,1.39-3.83h11.13a17.38,17.38,0,0,1-2.64,8.57,16.19,16.19,0,0,1-6.52,5.77A21.79,21.79,0,0,1,596.08,187.76Z"/><path class="cls-1" d="M639.67,144.42v8.85h-25.6v-8.85Zm-19.79-10.19h11.79v39.64a5.3,5.3,0,0,0,.5,2.53,2.72,2.72,0,0,0,1.4,1.26,5.61,5.61,0,0,0,2.09.36,9.32,9.32,0,0,0,1.66-.15l1.27-.24,1.86,8.78c-.59.18-1.42.4-2.49.65a20.36,20.36,0,0,1-3.91.45,17.82,17.82,0,0,1-7.46-1.13,10.45,10.45,0,0,1-5-4,12.37,12.37,0,0,1-1.75-6.92Z"/><path class="cls-1" d="M641.26,186.93V144.42h11.43v7.41h.44a11.11,11.11,0,0,1,3.91-6,10.33,10.33,0,0,1,6.31-2,16.33,16.33,0,0,1,1.91.11,13,13,0,0,1,1.8.3v10.47a15,15,0,0,0-2.3-.45,20.42,20.42,0,0,0-2.68-.19,9.4,9.4,0,0,0-4.64,1.12,8.34,8.34,0,0,0-3.21,3.11,8.82,8.82,0,0,0-1.18,4.6v24.05Z"/><path class="cls-1" d="M695.05,168.83V144.42h11.79v42.51H695.52v-7.72h-.44a12.6,12.6,0,0,1-4.78,6,14.11,14.11,0,0,1-8.12,2.27,14.35,14.35,0,0,1-7.5-1.94,13.23,13.23,0,0,1-5-5.51,18.93,18.93,0,0,1-1.84-8.55V144.42h11.79v25a8.58,8.58,0,0,0,2,6,6.87,6.87,0,0,0,5.34,2.19,8.47,8.47,0,0,0,4-1,7.64,7.64,0,0,0,3-2.92A9,9,0,0,0,695.05,168.83Z"/><path class="cls-1" d="M710.88,186.93V144.42h11.24v7.5h.5a11.76,11.76,0,0,1,4.43-5.9,13.81,13.81,0,0,1,14.86,0,10.29,10.29,0,0,1,4.1,5.88h.44a11.38,11.38,0,0,1,4.72-5.86,14.7,14.7,0,0,1,8.1-2.2,13,13,0,0,1,9.67,3.78q3.72,3.78,3.72,10.7v28.59H760.9V160.66a7,7,0,0,0-1.88-5.31,6.61,6.61,0,0,0-4.71-1.77,6.36,6.36,0,0,0-5,2,7.79,7.79,0,0,0-1.8,5.36v26H736.07V160.42a6.9,6.9,0,0,0-1.78-5,6.25,6.25,0,0,0-4.7-1.85,6.5,6.5,0,0,0-3.52,1,6.93,6.93,0,0,0-2.48,2.74,8.77,8.77,0,0,0-.92,4.11v25.52Z"/><path class="cls-2" d="M403,133.12c-.08-9.28,5.56-21.52,15.5-33A96.29,96.29,0,0,0,416.64,89C410.71,62.4,395.19,43.24,382,46.19S362.86,73.07,368.8,99.66c3.18,14.29,9.14,26.42,16,34.14C392,131.2,398.49,130.85,403,133.12Z"/><path class="cls-3" d="M412.31,136.06c5,.69,10.07,4.67,14.49,10.92,10.05-2.41,21.87-9,32.65-18.87,20.06-18.43,28.9-41.45,19.74-51.42s-32.84-3.1-52.9,15.33a97.14,97.14,0,0,0-7.84,8.07C420,115.22,417.67,128.48,412.31,136.06Z"/><path class="cls-4" d="M403,133.12a10.53,10.53,0,0,1,3,2.26,10.23,10.23,0,0,1,1,1.3,10.08,10.08,0,0,1,5.34-.62c5.36-7.58,7.73-20.84,6.14-36C408.51,111.6,402.87,123.84,403,133.12Z"/><path class="cls-5" d="M400.4,142.74c-5.22-.13-10.64-3.39-15.58-8.94A69.28,69.28,0,0,0,362.31,148c-16.55,15.21-23.84,34.21-16.28,42.43s27.1,2.57,43.66-12.64a80.63,80.63,0,0,0,6.46-6.67C394.93,159.48,396.56,149.15,400.4,142.74Z"/><path class="cls-6" d="M400.4,142.74a16.49,16.49,0,0,1,3.39-4.12,17.91,17.91,0,0,1-.84-5.5c-4.46-2.27-10.94-1.92-18.13.68C389.76,139.35,395.18,142.61,400.4,142.74Z"/><path class="cls-7" d="M426.8,147c-7.24,1.73-13.54,1.3-17.9-1.57-.51,7.45-5.08,16.86-12.75,25.74a81.34,81.34,0,0,0,1.5,9.17c4.89,21.94,17.7,37.75,28.61,35.32s15.77-22.19,10.87-44.13C435,161.77,431.23,153.24,426.8,147Z"/><path class="cls-8" d="M412.31,136.06a18.48,18.48,0,0,1-3.83,4,16.66,16.66,0,0,1,.42,5.32c4.36,2.87,10.66,3.3,17.9,1.57C422.38,140.73,417.27,136.75,412.31,136.06Z"/><path class="cls-9" d="M408.9,145.41a12.72,12.72,0,0,1-2.35-2,13.12,13.12,0,0,1-1.21-1.57,11.12,11.12,0,0,1-1.88.6,12.6,12.6,0,0,1-3.06.28c-3.84,6.41-5.47,16.74-4.25,28.41C403.82,162.27,408.39,152.86,408.9,145.41Z"/></svg>